<svg width="32" height="32" viewBox="0 0 32 32" fill="none" xmlns="http://www.w3.org/2000/svg">
<path d="M15.9998 2.66667C13.3628 2.66667 10.7849 3.44866 8.59224 4.91374C6.39958 6.37883 4.69062 8.46121 3.68145 10.8976C2.67228 13.3339 2.40824 16.0148 2.92271 18.6012C3.43718 21.1876 4.70705 23.5634 6.57175 25.4281C8.43645 27.2928 10.8122 28.5627 13.3986 29.0771C15.9851 29.5916 18.6659 29.3276 21.1023 28.3184C23.5386 27.3092 25.621 25.6003 27.0861 23.4076C28.5512 21.215 29.3332 18.6371 29.3332 16C29.3332 14.249 28.9883 12.5152 28.3182 10.8976C27.6482 9.27988 26.666 7.81003 25.4279 6.57191C24.1898 5.3338 22.72 4.35167 21.1023 3.68161C19.4846 3.01155 17.7508 2.66667 15.9998 2.66667ZM15.9998 5.33334C18.7395 5.33225 21.3729 6.39325 23.3465 8.29334C21.3092 9.48827 19.1503 10.4627 16.9065 11.2C15.7898 9.27577 14.5095 7.45126 13.0798 5.74667C14.0291 5.47334 15.012 5.33421 15.9998 5.33334ZM10.5198 6.86667C11.9168 8.46468 13.1705 10.1824 14.2665 12C11.6493 12.6499 8.96318 12.9812 6.26651 12.9867H5.78651C6.54278 10.4262 8.23176 8.24241 10.5198 6.86667ZM7.99984 23.08C6.26485 21.1317 5.31462 18.6088 5.33318 16C5.33318 15.8667 5.33318 15.7333 5.33318 15.6133H6.23984C9.39634 15.5851 12.535 15.1367 15.5732 14.28C15.9998 15.0933 16.3998 15.9333 16.7865 16.8C14.7085 17.5326 12.7732 18.6198 11.0665 20.0133L10.6665 20.3333C9.716 21.187 8.82503 22.1047 7.99984 23.08ZM15.9998 26.6667C13.8746 26.6714 11.7974 26.0348 10.0398 24.84C10.689 24.0955 11.3836 23.3919 12.1198 22.7333L12.5465 22.3733C14.1241 21.0465 15.9318 20.0206 17.8798 19.3467C18.6816 21.5147 19.3059 23.7442 19.7465 26.0133C18.5462 26.4516 17.2776 26.6728 15.9998 26.6667ZM22.1732 24.68C21.7369 22.6621 21.1668 20.6755 20.4665 18.7333H20.9198C20.9724 18.7204 21.0273 18.7204 21.0798 18.7333H21.2265H21.3598H21.9998C23.403 18.7374 24.7956 18.9762 26.1198 19.44C25.3923 21.5605 24.0104 23.3953 22.1732 24.68ZM21.9998 16C21.7198 16 21.4398 16 21.1732 16C21.0005 15.9783 20.8258 15.9783 20.6532 16C20.2908 16.0223 19.9301 16.0668 19.5732 16.1333H19.4398C19.0532 15.24 18.6532 14.3733 18.2132 13.4667C20.6007 12.6467 22.8937 11.574 25.0532 10.2667C26.1244 11.9858 26.684 13.9745 26.6665 16C26.6665 16.2267 26.6665 16.4533 26.6665 16.68C25.1554 16.2136 23.5812 15.9842 21.9998 16Z" fill="url(#paint0_linear_2_5344)"/>
<defs>
<linearGradient id="paint0_linear_2_5344" x1="29.8316" y1="29.3333" x2="6.32529" y2="-3.3996" gradientUnits="userSpaceOnUse">
<stop stop-color="#189BEE"/>
<stop offset="1" stop-color="#4062FF"/>
</linearGradient>
</defs>
</svg>
