<svg width="28" height="28" viewBox="0 0 28 28" fill="none" xmlns="http://www.w3.org/2000/svg">
<path d="M14.0002 2.33325C11.6927 2.33325 9.43709 3.01749 7.51852 4.29944C5.59994 5.58139 4.1046 7.40347 3.22157 9.53528C2.33855 11.6671 2.10751 14.0129 2.55767 16.276C3.00783 18.5391 4.11898 20.6179 5.75059 22.2495C7.3822 23.8811 9.461 24.9923 11.7241 25.4424C13.9872 25.8926 16.333 25.6615 18.4648 24.7785C20.5966 23.8955 22.4187 22.4001 23.7006 20.4816C24.9826 18.563 25.6668 16.3074 25.6668 13.9999C25.6668 12.4678 25.3651 10.9507 24.7788 9.53528C24.1925 8.11981 23.3331 6.83369 22.2497 5.75034C21.1664 4.66699 19.8803 3.80763 18.4648 3.22132C17.0493 2.63502 15.5323 2.33325 14.0002 2.33325ZM14.0002 4.66659C16.3974 4.66563 18.7016 5.594 20.4285 7.25658C18.6459 8.30215 16.7569 9.15475 14.7935 9.79992C13.8164 8.11621 12.6962 6.51976 11.4452 5.02825C12.2758 4.78908 13.1358 4.66735 14.0002 4.66659ZM9.20517 6.00825C10.4275 7.40651 11.5245 8.90952 12.4835 10.4999C10.1935 11.0686 7.84309 11.3584 5.4835 11.3633H5.0635C5.72524 9.12283 7.20309 7.21203 9.20517 6.00825ZM7.00017 20.1949C5.48205 18.4901 4.65059 16.2826 4.66683 13.9999C4.66683 13.8833 4.66683 13.7666 4.66683 13.6616H5.46017C8.22211 13.6369 10.9685 13.2446 13.6268 12.4949C14.0002 13.2066 14.3502 13.9416 14.6885 14.6999C12.8702 15.3409 11.1768 16.2922 9.6835 17.5116L9.3335 17.7916C8.5018 18.5385 7.72221 19.3415 7.00017 20.1949ZM14.0002 23.3333C12.1406 23.3374 10.3231 22.7803 8.78517 21.7349C9.35315 21.0834 9.96098 20.4678 10.6052 19.8916L10.9785 19.5766C12.3589 18.4156 13.9406 17.518 15.6452 16.9283C16.3467 18.8252 16.893 20.7761 17.2785 22.7616C16.2283 23.145 15.1182 23.3386 14.0002 23.3333ZM19.4018 21.5949C19.0201 19.8292 18.5213 18.091 17.9085 16.3916H18.3052C18.3511 16.3802 18.3992 16.3802 18.4452 16.3916H18.5735H18.6902H19.2502C20.4779 16.3951 21.6964 16.6041 22.8552 17.0099C22.2185 18.8653 21.0094 20.4708 19.4018 21.5949ZM19.2502 13.9999C19.0052 13.9999 18.7602 13.9999 18.5268 13.9999C18.3758 13.9809 18.2229 13.9809 18.0718 13.9999C17.7547 14.0194 17.4391 14.0584 17.1268 14.1166H17.0102C16.6718 13.3349 16.3218 12.5766 15.9368 11.7833C18.0259 11.0658 20.0323 10.1272 21.9218 8.98325C22.8592 10.4875 23.3488 12.2276 23.3335 13.9999C23.3335 14.1983 23.3335 14.3966 23.3335 14.5949C22.0113 14.1868 20.6338 13.9861 19.2502 13.9999Z" fill="url(#paint0_linear_2_5340)"/>
<defs>
<linearGradient id="paint0_linear_2_5340" x1="26.103" y1="25.6666" x2="5.53494" y2="-2.97473" gradientUnits="userSpaceOnUse">
<stop stop-color="#189BEE"/>
<stop offset="1" stop-color="#4062FF"/>
</linearGradient>
</defs>
</svg>
