<svg width="28" height="28" viewBox="0 0 28 28" fill="none" xmlns="http://www.w3.org/2000/svg">
<path d="M24.3835 2.33325H3.61683C3.27647 2.33325 2.95005 2.46846 2.70938 2.70913C2.4687 2.9498 2.3335 3.27622 2.3335 3.61659V24.3833C2.3335 24.5518 2.36669 24.7187 2.43118 24.8744C2.49568 25.0301 2.59021 25.1715 2.70938 25.2907C2.82854 25.4099 2.97002 25.5044 3.12572 25.5689C3.28142 25.6334 3.4483 25.6666 3.61683 25.6666H14.7935V16.6249H11.7602V13.1249H14.7935V10.4999C14.7307 9.88364 14.8034 9.26107 15.0067 8.67588C15.2099 8.09069 15.5387 7.55705 15.97 7.1124C16.4014 6.66774 16.9247 6.32283 17.5035 6.10186C18.0822 5.88089 18.7023 5.78921 19.3202 5.83325C20.2282 5.82766 21.1358 5.87441 22.0385 5.97325V9.12325H20.1835C18.7135 9.12325 18.4335 9.82325 18.4335 10.8383V13.0899H21.9335L21.4785 16.5899H18.4335V25.6666H24.3835C24.552 25.6666 24.7189 25.6334 24.8746 25.5689C25.0303 25.5044 25.1718 25.4099 25.291 25.2907C25.4101 25.1715 25.5047 25.0301 25.5691 24.8744C25.6336 24.7187 25.6668 24.5518 25.6668 24.3833V3.61659C25.6668 3.44806 25.6336 3.28118 25.5691 3.12548C25.5047 2.96977 25.4101 2.8283 25.291 2.70913C25.1718 2.58996 25.0303 2.49543 24.8746 2.43094C24.7189 2.36645 24.552 2.33325 24.3835 2.33325Z" fill="url(#paint0_linear_2_5352)"/>
<defs>
<linearGradient id="paint0_linear_2_5352" x1="26.103" y1="25.6666" x2="5.53494" y2="-2.97473" gradientUnits="userSpaceOnUse">
<stop stop-color="#189BEE"/>
<stop offset="1" stop-color="#4062FF"/>
</linearGradient>
</defs>
</svg>
