<svg width="30" height="30" viewBox="0 0 30 30" fill="none" xmlns="http://www.w3.org/2000/svg">
<path d="M15 2.5C12.5277 2.5 10.111 3.23311 8.05538 4.60663C5.99976 5.98015 4.39761 7.93238 3.45151 10.2165C2.50542 12.5005 2.25787 15.0139 2.74019 17.4386C3.2225 19.8634 4.41301 22.0907 6.16117 23.8388C7.90933 25.587 10.1366 26.7775 12.5614 27.2598C14.9861 27.7421 17.4995 27.4946 19.7836 26.5485C22.0676 25.6024 24.0199 24.0002 25.3934 21.9446C26.7669 19.889 27.5 17.4723 27.5 15C27.5 13.3585 27.1767 11.733 26.5485 10.2165C25.9203 8.69989 24.9996 7.3219 23.8388 6.16117C22.6781 5.00043 21.3001 4.07969 19.7836 3.45151C18.267 2.82332 16.6415 2.5 15 2.5ZM15 5C17.5684 4.99898 20.0372 5.99366 21.8875 7.775C19.9775 8.89525 17.9536 9.80874 15.85 10.5C14.8031 8.69603 13.6028 6.98555 12.2625 5.3875C13.1525 5.13125 14.0739 5.00081 15 5ZM9.8625 6.4375C11.1721 7.93563 12.3475 9.546 13.375 11.25C10.9214 11.8593 8.40313 12.1698 5.87501 12.175H5.42501C6.13401 9.77455 7.71743 7.72726 9.8625 6.4375ZM7.50001 21.6375C5.87345 19.8109 4.9826 17.4458 5.00001 15C5.00001 14.875 5.00001 14.75 5.00001 14.6375H5.85001C8.80922 14.611 11.7517 14.1907 14.6 13.3875C15 14.15 15.375 14.9375 15.7375 15.75C13.7894 16.4368 11.975 17.456 10.375 18.7625L10 19.0625C9.1089 19.8628 8.27362 20.7231 7.50001 21.6375ZM15 25C13.0076 25.0044 11.0603 24.4076 9.41251 23.2875C10.0211 22.5895 10.6723 21.9299 11.3625 21.3125L11.7625 20.975C13.2415 19.7311 14.9362 18.7693 16.7625 18.1375C17.5142 20.17 18.0994 22.2602 18.5125 24.3875C17.3873 24.7984 16.1979 25.0057 15 25ZM20.7875 23.1375C20.3785 21.2457 19.844 19.3832 19.1875 17.5625H19.6125C19.6618 17.5503 19.7132 17.5503 19.7625 17.5625H19.9H20.025H20.625C21.9405 17.5663 23.246 17.7902 24.4875 18.225C23.8054 20.213 22.5099 21.9331 20.7875 23.1375ZM20.625 15C20.3625 15 20.1 15 19.85 15C19.6881 14.9796 19.5244 14.9796 19.3625 15C19.0228 15.0209 18.6846 15.0626 18.35 15.125H18.225C17.8625 14.2875 17.4875 13.475 17.075 12.625C19.3133 11.8563 21.463 10.8506 23.4875 9.625C24.4918 11.2367 25.0164 13.1011 25 15C25 15.2125 25 15.425 25 15.6375C23.5834 15.2003 22.1075 14.9852 20.625 15Z" fill="#79869A"/>
</svg>
