<svg width="30" height="30" viewBox="0 0 30 30" fill="none" xmlns="http://www.w3.org/2000/svg">
<path d="M25.5877 2.50017H4.4127C4.17467 2.49687 3.93832 2.54048 3.71715 2.62853C3.49598 2.71657 3.29432 2.84733 3.12369 3.01331C2.95306 3.1793 2.8168 3.37728 2.72269 3.59594C2.62857 3.81459 2.57846 4.04965 2.5752 4.28767V25.7127C2.57846 25.9507 2.62857 26.1858 2.72269 26.4044C2.8168 26.6231 2.95306 26.821 3.12369 26.987C3.29432 27.153 3.49598 27.2838 3.71715 27.3718C3.93832 27.4599 4.17467 27.5035 4.4127 27.5002H25.5877C25.8257 27.5035 26.0621 27.4599 26.2832 27.3718C26.5044 27.2838 26.7061 27.153 26.8767 26.987C27.0473 26.821 27.1836 26.6231 27.2777 26.4044C27.3718 26.1858 27.4219 25.9507 27.4252 25.7127V4.28767C27.4219 4.04965 27.3718 3.81459 27.2777 3.59594C27.1836 3.37728 27.0473 3.1793 26.8767 3.01331C26.7061 2.84733 26.5044 2.71657 26.2832 2.62853C26.0621 2.54048 25.8257 2.49687 25.5877 2.50017ZM10.1127 23.4252H6.3627V12.1752H10.1127V23.4252ZM8.2377 10.6002C7.72052 10.6002 7.22453 10.3947 6.85884 10.029C6.49314 9.66334 6.2877 9.16735 6.2877 8.65017C6.2877 8.133 6.49314 7.63701 6.85884 7.27132C7.22453 6.90562 7.72052 6.70017 8.2377 6.70017C8.51231 6.66903 8.79042 6.69624 9.05379 6.78003C9.31716 6.86382 9.55987 7.00229 9.76602 7.18638C9.97216 7.37047 10.1371 7.59602 10.25 7.84828C10.363 8.10053 10.4213 8.3738 10.4213 8.65017C10.4213 8.92655 10.363 9.19982 10.25 9.45207C10.1371 9.70433 9.97216 9.92988 9.76602 10.114C9.55987 10.2981 9.31716 10.4365 9.05379 10.5203C8.79042 10.6041 8.51231 10.6313 8.2377 10.6002ZM23.6377 23.4252H19.8877V17.3877C19.8877 15.8752 19.3502 14.8877 17.9877 14.8877C17.566 14.8908 17.1554 15.023 16.8112 15.2666C16.467 15.5103 16.2058 15.8535 16.0627 16.2502C15.9649 16.544 15.9225 16.8534 15.9377 17.1627V23.4127H12.1877C12.1877 23.4127 12.1877 13.1877 12.1877 12.1627H15.9377V13.7502C16.2784 13.1591 16.7738 12.6721 17.3707 12.3417C17.9677 12.0113 18.6434 11.85 19.3252 11.8752C21.8252 11.8752 23.6377 13.4877 23.6377 16.9502V23.4252Z" fill="#79869A"/>
</svg>
