<svg width="28" height="28" viewBox="0 0 28 28" fill="none" xmlns="http://www.w3.org/2000/svg">
<path d="M20.2302 6.36992C19.9533 6.36992 19.6826 6.45203 19.4524 6.60586C19.2221 6.7597 19.0427 6.97835 18.9367 7.23416C18.8308 7.48998 18.803 7.77147 18.8571 8.04305C18.9111 8.31462 19.0444 8.56407 19.2402 8.75987C19.436 8.95566 19.6855 9.089 19.957 9.14302C20.2286 9.19704 20.5101 9.16931 20.7659 9.06335C21.0217 8.95739 21.2404 8.77795 21.3942 8.54772C21.5481 8.31749 21.6302 8.04681 21.6302 7.76992C21.6302 7.39862 21.4827 7.04252 21.2201 6.77997C20.9576 6.51742 20.6015 6.36992 20.2302 6.36992ZM25.5968 9.19325C25.5741 8.22527 25.3928 7.26756 25.0602 6.35825C24.7635 5.58024 24.3018 4.87574 23.7068 4.29325C23.1291 3.69525 22.423 3.23646 21.6418 2.95159C20.7349 2.60877 19.7762 2.42333 18.8068 2.40325C17.5702 2.33325 17.1735 2.33325 14.0002 2.33325C10.8268 2.33325 10.4302 2.33325 9.1935 2.40325C8.22417 2.42333 7.2654 2.60877 6.3585 2.95159C5.57879 3.23934 4.87325 3.69774 4.2935 4.29325C3.69549 4.87096 3.2367 5.5771 2.95183 6.35825C2.60902 7.26515 2.42357 8.22393 2.4035 9.19325C2.3335 10.4299 2.3335 10.8266 2.3335 13.9999C2.3335 17.1733 2.3335 17.5699 2.4035 18.8066C2.42357 19.7759 2.60902 20.7347 2.95183 21.6416C3.2367 22.4227 3.69549 23.1289 4.2935 23.7066C4.87325 24.3021 5.57879 24.7605 6.3585 25.0483C7.2654 25.3911 8.22417 25.5765 9.1935 25.5966C10.4302 25.6666 10.8268 25.6666 14.0002 25.6666C17.1735 25.6666 17.5702 25.6666 18.8068 25.5966C19.7762 25.5765 20.7349 25.3911 21.6418 25.0483C22.423 24.7634 23.1291 24.3046 23.7068 23.7066C24.3044 23.1263 24.7666 22.4211 25.0602 21.6416C25.3928 20.7323 25.5741 19.7746 25.5968 18.8066C25.5968 17.5699 25.6668 17.1733 25.6668 13.9999C25.6668 10.8266 25.6668 10.4299 25.5968 9.19325ZM23.4968 18.6666C23.4883 19.4072 23.3542 20.1409 23.1002 20.8366C22.9139 21.3443 22.6147 21.8031 22.2252 22.1783C21.8468 22.5638 21.3889 22.8624 20.8835 23.0533C20.1878 23.3073 19.4541 23.4414 18.7135 23.4499C17.5468 23.5083 17.1152 23.5199 14.0468 23.5199C10.9785 23.5199 10.5468 23.5199 9.38016 23.4499C8.6112 23.4643 7.84552 23.3459 7.11683 23.0999C6.63357 22.8993 6.19674 22.6015 5.8335 22.2249C5.44627 21.8501 5.15081 21.391 4.97016 20.8833C4.68533 20.1776 4.52735 19.4272 4.5035 18.6666C4.5035 17.4999 4.4335 17.0683 4.4335 13.9999C4.4335 10.9316 4.4335 10.4999 4.5035 9.33325C4.50873 8.57615 4.64694 7.82586 4.91183 7.11659C5.11722 6.62415 5.43247 6.18519 5.8335 5.83325C6.18795 5.43212 6.626 5.11353 7.11683 4.89992C7.82797 4.6433 8.57749 4.50918 9.3335 4.50325C10.5002 4.50325 10.9318 4.43325 14.0002 4.43325C17.0685 4.43325 17.5002 4.43325 18.6668 4.50325C19.4074 4.51175 20.1412 4.64587 20.8368 4.89992C21.367 5.09668 21.8428 5.41657 22.2252 5.83325C22.6075 6.19163 22.9062 6.62977 23.1002 7.11659C23.3595 7.82701 23.4937 8.577 23.4968 9.33325C23.5552 10.4999 23.5668 10.9316 23.5668 13.9999C23.5668 17.0683 23.5552 17.4999 23.4968 18.6666ZM14.0002 8.01492C12.8169 8.01723 11.661 8.3702 10.6783 9.02924C9.69557 9.68828 8.93027 10.6238 8.47907 11.7176C8.02787 12.8114 7.91101 14.0145 8.14326 15.1747C8.3755 16.3349 8.94644 17.4002 9.78392 18.2361C10.6214 19.0719 11.6878 19.6408 12.8485 19.8708C14.0092 20.1007 15.2119 19.9815 16.3049 19.5282C17.3978 19.0749 18.3319 18.3078 18.989 17.3238C19.6461 16.3398 19.9968 15.1831 19.9968 13.9999C19.9984 13.2125 19.8442 12.4326 19.5433 11.705C19.2423 10.9774 18.8005 10.3165 18.2432 9.76031C17.6859 9.20409 17.0241 8.76354 16.2959 8.464C15.5677 8.16446 14.7875 8.01184 14.0002 8.01492ZM14.0002 17.8849C13.2318 17.8849 12.4807 17.6571 11.8418 17.2302C11.2029 16.8033 10.7049 16.1965 10.4109 15.4866C10.1168 14.7768 10.0399 13.9956 10.1898 13.242C10.3397 12.4884 10.7097 11.7961 11.2531 11.2528C11.7964 10.7095 12.4886 10.3395 13.2422 10.1896C13.9959 10.0397 14.777 10.1166 15.4869 10.4106C16.1968 10.7047 16.8035 11.2026 17.2304 11.8415C17.6573 12.4804 17.8852 13.2315 17.8852 13.9999C17.8852 14.5101 17.7847 15.0153 17.5894 15.4866C17.3942 15.958 17.108 16.3863 16.7473 16.747C16.3865 17.1078 15.9582 17.394 15.4869 17.5892C15.0155 17.7844 14.5103 17.8849 14.0002 17.8849Z" fill="url(#paint0_linear_2_5346)"/>
<defs>
<linearGradient id="paint0_linear_2_5346" x1="26.103" y1="25.6666" x2="5.53494" y2="-2.97473" gradientUnits="userSpaceOnUse">
<stop stop-color="#189BEE"/>
<stop offset="1" stop-color="#4062FF"/>
</linearGradient>
</defs>
</svg>
