<svg width="28" height="28" viewBox="0 0 28 28" fill="none" xmlns="http://www.w3.org/2000/svg">
<path d="M23.8817 2.33342H4.11832C3.89616 2.33033 3.67557 2.37104 3.46915 2.45321C3.26272 2.53539 3.07451 2.65742 2.91525 2.81235C2.75599 2.96727 2.62882 3.15205 2.54098 3.35613C2.45314 3.56021 2.40636 3.77959 2.40332 4.00175V23.9984C2.40636 24.2206 2.45314 24.44 2.54098 24.644C2.62882 24.8481 2.75599 25.0329 2.91525 25.1878C3.07451 25.3427 3.26272 25.4648 3.46915 25.5469C3.67557 25.6291 3.89616 25.6698 4.11832 25.6667H23.8817C24.1038 25.6698 24.3244 25.6291 24.5308 25.5469C24.7373 25.4648 24.9255 25.3427 25.0847 25.1878C25.244 25.0329 25.3712 24.8481 25.459 24.644C25.5468 24.44 25.5936 24.2206 25.5967 23.9984V4.00175C25.5936 3.77959 25.5468 3.56021 25.459 3.35613C25.3712 3.15205 25.244 2.96727 25.0847 2.81235C24.9255 2.65742 24.7373 2.53539 24.5308 2.45321C24.3244 2.37104 24.1038 2.33033 23.8817 2.33342ZM9.43832 21.8634H5.93832V11.3634H9.43832V21.8634ZM7.68832 9.89341C7.20563 9.89341 6.7427 9.70167 6.40139 9.36035C6.06007 9.01903 5.86832 8.55611 5.86832 8.07341C5.86832 7.59072 6.06007 7.1278 6.40139 6.78648C6.7427 6.44516 7.20563 6.25341 7.68832 6.25341C7.94463 6.22435 8.20419 6.24974 8.45001 6.32795C8.69582 6.40615 8.92235 6.53539 9.11475 6.7072C9.30716 6.87902 9.4611 7.08954 9.5665 7.32498C9.67191 7.56041 9.72639 7.81546 9.72639 8.07341C9.72639 8.33137 9.67191 8.58641 9.5665 8.82185C9.4611 9.05729 9.30716 9.26781 9.11475 9.43963C8.92235 9.61144 8.69582 9.74068 8.45001 9.81888C8.20419 9.89709 7.94463 9.92248 7.68832 9.89341ZM22.0617 21.8634H18.5617V16.2284C18.5617 14.8167 18.06 13.8951 16.7883 13.8951C16.3948 13.898 16.0115 14.0214 15.6903 14.2488C15.3691 14.4762 15.1252 14.7965 14.9917 15.1667C14.9004 15.441 14.8608 15.7298 14.875 16.0184V21.8517H11.375C11.375 21.8517 11.375 12.3084 11.375 11.3517H14.875V12.8334C15.1929 12.2817 15.6554 11.8272 16.2125 11.5188C16.7696 11.2104 17.4003 11.0599 18.0367 11.0834C20.37 11.0834 22.0617 12.5884 22.0617 15.8201V21.8634Z" fill="url(#paint0_linear_2_5348)"/>
<defs>
<linearGradient id="paint0_linear_2_5348" x1="26.0302" y1="25.6669" x2="5.42251" y2="-2.85702" gradientUnits="userSpaceOnUse">
<stop stop-color="#189BEE"/>
<stop offset="1" stop-color="#4062FF"/>
</linearGradient>
</defs>
</svg>
