<svg width="56" height="56" viewBox="0 0 56 56" fill="none" xmlns="http://www.w3.org/2000/svg">
<g clip-path="url(#clip0_2_5270)">
<path d="M38.0775 25.8119C39.4567 25.4148 40.836 25.2133 42.1776 25.2133C43.1153 25.2133 44.001 24.4639 43.8132 23.5452C42.873 18.946 42.0058 13.2359 36.7376 12.4528C36.1648 12.3676 35.6955 11.9535 35.5392 11.396L34.1876 6.56155C34.0736 6.15271 34.1412 5.71508 34.3744 5.36027C34.6076 5.00547 34.9824 4.76874 35.4024 4.71117C35.8588 4.64891 36.324 4.61719 36.7851 4.61719C44.2083 4.61719 51.5598 12.3653 54.6619 23.4593C56.4829 29.9679 57.0169 39.7532 52.5314 45.9123C50.0214 49.3587 46.3594 51.1991 41.6472 51.3829C41.6278 51.3835 41.609 51.3841 41.5896 51.3841C35.7754 51.3841 30.6196 47.4684 29.0512 41.8626C28.1143 38.5114 28.5378 34.9968 30.2449 31.964C31.9337 28.9652 34.7151 26.7794 38.0775 25.8119Z" fill="#22BDFF"/>
<path d="M1.68192 31.9638C3.37074 28.9645 6.15215 26.7787 9.51451 25.8112C10.8938 25.4141 12.273 25.2126 13.6141 25.2126C14.7385 25.2126 15.9282 23.5977 15.6666 22.5041C14.6236 18.1432 13.2564 13.2075 8.17403 12.4521C7.6013 12.3669 7.13255 11.9528 6.97571 11.3953L5.62406 6.56082C5.51011 6.15197 5.57766 5.71434 5.81086 5.35954C6.04348 5.00474 6.41825 4.76801 6.83884 4.71044C7.29467 4.64818 7.7599 4.61646 8.22161 4.61646C15.6448 4.61646 22.9963 12.3645 26.099 23.4586C27.9194 29.9672 28.4533 39.7524 23.9673 45.9127C21.4578 49.3585 17.7953 51.1995 13.0836 51.3828C13.0643 51.3834 13.0455 51.384 13.0255 51.384C7.21184 51.384 2.05552 47.4682 0.487125 41.8625C-0.448626 38.5112 -0.0245132 34.9961 1.68192 31.9638Z" fill="#22BDFF"/>
</g>
<defs>
<clipPath id="clip0_2_5270">
<rect width="56" height="56" fill="white" transform="matrix(-1 0 0 1 56 0)"/>
</clipPath>
</defs>
</svg>
