<svg width="162" height="26" viewBox="0 0 162 26" fill="none" xmlns="http://www.w3.org/2000/svg">
<path d="M19.4115 15.5135C19.1309 15.7854 19.002 16.1787 19.0659 16.5643L20.029 21.8943C20.1102 22.3461 19.9195 22.8032 19.5415 23.0643C19.171 23.3352 18.678 23.3677 18.274 23.151L13.4759 20.6485C13.309 20.5597 13.1238 20.512 12.9342 20.5066H12.6406C12.5388 20.5217 12.4391 20.5542 12.3481 20.6041L7.54896 23.1185C7.31171 23.2377 7.04305 23.2799 6.7798 23.2377C6.13846 23.1163 5.71055 22.5053 5.81563 21.8607L6.7798 16.5307C6.84371 16.1418 6.7148 15.7464 6.43421 15.4702L2.5223 11.6785C2.19513 11.3611 2.08138 10.8844 2.23088 10.4543C2.37605 10.0253 2.74655 9.71225 3.19396 9.64183L8.57813 8.86075C8.98763 8.8185 9.3473 8.56933 9.53146 8.201L11.904 3.33683C11.9603 3.2285 12.0329 3.12883 12.1206 3.04433L12.2181 2.9685C12.269 2.91216 12.3275 2.86558 12.3925 2.82766L12.5106 2.78433L12.6948 2.7085H13.1509C13.5582 2.75075 13.9168 2.9945 14.1042 3.3585L16.5081 8.201C16.6815 8.55525 17.0184 8.80116 17.4073 8.86075L22.7915 9.64183C23.2465 9.70683 23.6267 10.021 23.7773 10.4543C23.9192 10.8887 23.7968 11.3654 23.4631 11.6785L19.4115 15.5135Z" fill="#FCA239"/>
<path d="M53.4115 15.5135C53.1309 15.7854 53.002 16.1787 53.0659 16.5643L54.029 21.8943C54.1102 22.3461 53.9195 22.8032 53.5415 23.0643C53.171 23.3352 52.678 23.3677 52.274 23.151L47.4759 20.6485C47.309 20.5597 47.1238 20.512 46.9342 20.5066H46.6406C46.5388 20.5217 46.4391 20.5542 46.3481 20.6041L41.549 23.1185C41.3117 23.2377 41.043 23.2799 40.7798 23.2377C40.1385 23.1163 39.7105 22.5053 39.8156 21.8607L40.7798 16.5307C40.8437 16.1418 40.7148 15.7464 40.4342 15.4702L36.5223 11.6785C36.1951 11.3611 36.0814 10.8844 36.2309 10.4543C36.376 10.0253 36.7465 9.71225 37.194 9.64183L42.5781 8.86075C42.9876 8.8185 43.3473 8.56933 43.5315 8.201L45.904 3.33683C45.9603 3.2285 46.0329 3.12883 46.1206 3.04433L46.2181 2.9685C46.269 2.91216 46.3275 2.86558 46.3925 2.82766L46.5106 2.78433L46.6948 2.7085H47.1509C47.5582 2.75075 47.9168 2.9945 48.1042 3.3585L50.5081 8.201C50.6815 8.55525 51.0184 8.80116 51.4073 8.86075L56.7915 9.64183C57.2465 9.70683 57.6267 10.021 57.7773 10.4543C57.9192 10.8887 57.7968 11.3654 57.4631 11.6785L53.4115 15.5135Z" fill="#FCA239"/>
<path d="M87.4115 15.5135C87.1309 15.7854 87.002 16.1787 87.0659 16.5643L88.029 21.8943C88.1102 22.3461 87.9195 22.8032 87.5415 23.0643C87.171 23.3352 86.678 23.3677 86.274 23.151L81.4759 20.6485C81.309 20.5597 81.1238 20.512 80.9342 20.5066H80.6406C80.5388 20.5217 80.4391 20.5542 80.3481 20.6041L75.549 23.1185C75.3117 23.2377 75.043 23.2799 74.7798 23.2377C74.1385 23.1163 73.7105 22.5053 73.8156 21.8607L74.7798 16.5307C74.8437 16.1418 74.7148 15.7464 74.4342 15.4702L70.5223 11.6785C70.1951 11.3611 70.0814 10.8844 70.2309 10.4543C70.376 10.0253 70.7465 9.71225 71.194 9.64183L76.5781 8.86075C76.9876 8.8185 77.3473 8.56933 77.5315 8.201L79.904 3.33683C79.9603 3.2285 80.0329 3.12883 80.1206 3.04433L80.2181 2.9685C80.269 2.91216 80.3275 2.86558 80.3925 2.82766L80.5106 2.78433L80.6948 2.7085H81.1509C81.5582 2.75075 81.9168 2.9945 82.1042 3.3585L84.5081 8.201C84.6815 8.55525 85.0184 8.80116 85.4073 8.86075L90.7915 9.64183C91.2465 9.70683 91.6267 10.021 91.7773 10.4543C91.9192 10.8887 91.7968 11.3654 91.4631 11.6785L87.4115 15.5135Z" fill="#FCA239"/>
<path d="M121.411 15.5135C121.131 15.7854 121.002 16.1787 121.066 16.5643L122.029 21.8943C122.11 22.3461 121.92 22.8032 121.541 23.0643C121.171 23.3352 120.678 23.3677 120.274 23.151L115.476 20.6485C115.309 20.5597 115.124 20.512 114.934 20.5066H114.641C114.539 20.5217 114.439 20.5542 114.348 20.6041L109.549 23.1185C109.312 23.2377 109.043 23.2799 108.78 23.2377C108.138 23.1163 107.711 22.5053 107.816 21.8607L108.78 16.5307C108.844 16.1418 108.715 15.7464 108.434 15.4702L104.522 11.6785C104.195 11.3611 104.081 10.8844 104.231 10.4543C104.376 10.0253 104.747 9.71225 105.194 9.64183L110.578 8.86075C110.988 8.8185 111.347 8.56933 111.531 8.201L113.904 3.33683C113.96 3.2285 114.033 3.12883 114.121 3.04433L114.218 2.9685C114.269 2.91216 114.328 2.86558 114.393 2.82766L114.511 2.78433L114.695 2.7085H115.151C115.558 2.75075 115.917 2.9945 116.104 3.3585L118.508 8.201C118.681 8.55525 119.018 8.80116 119.407 8.86075L124.791 9.64183C125.246 9.70683 125.627 10.021 125.777 10.4543C125.919 10.8887 125.797 11.3654 125.463 11.6785L121.411 15.5135Z" fill="#FCA239"/>
<path d="M155.411 15.5135C155.131 15.7854 155.002 16.1787 155.066 16.5643L156.029 21.8943C156.11 22.3461 155.92 22.8032 155.541 23.0643C155.171 23.3352 154.678 23.3677 154.274 23.151L149.476 20.6485C149.309 20.5597 149.124 20.512 148.934 20.5066H148.641C148.539 20.5217 148.439 20.5542 148.348 20.6041L143.549 23.1185C143.312 23.2377 143.043 23.2799 142.78 23.2377C142.138 23.1163 141.711 22.5053 141.816 21.8607L142.78 16.5307C142.844 16.1418 142.715 15.7464 142.434 15.4702L138.522 11.6785C138.195 11.3611 138.081 10.8844 138.231 10.4543C138.376 10.0253 138.747 9.71225 139.194 9.64183L144.578 8.86075C144.988 8.8185 145.347 8.56933 145.531 8.201L147.904 3.33683C147.96 3.2285 148.033 3.12883 148.121 3.04433L148.218 2.9685C148.269 2.91216 148.328 2.86558 148.393 2.82766L148.511 2.78433L148.695 2.7085H149.151C149.558 2.75075 149.917 2.9945 150.104 3.3585L152.508 8.201C152.681 8.55525 153.018 8.80116 153.407 8.86075L158.791 9.64183C159.246 9.70683 159.627 10.021 159.777 10.4543C159.919 10.8887 159.797 11.3654 159.463 11.6785L155.411 15.5135Z" fill="#FCA239"/>
</svg>
