<svg width="28" height="28" viewBox="0 0 28 28" fill="none" xmlns="http://www.w3.org/2000/svg">
<path d="M25.6668 6.76667C24.7899 7.14711 23.8625 7.39861 22.9135 7.51333C23.9147 6.91521 24.665 5.97425 25.0252 4.865C24.0843 5.42507 23.0544 5.81968 21.9802 6.03167C21.2621 5.253 20.306 4.73468 19.2616 4.55799C18.2173 4.38131 17.1438 4.55625 16.2096 5.05539C15.2754 5.55452 14.5333 6.34962 14.0996 7.31598C13.666 8.28233 13.5653 9.36529 13.8135 10.395C11.9112 10.2988 10.0503 9.80345 8.35193 8.94117C6.65351 8.0789 5.15548 6.86898 3.95516 5.39C3.53416 6.1252 3.31294 6.95779 3.3135 7.805C3.312 8.59178 3.50508 9.36672 3.87554 10.0608C4.246 10.7549 4.78235 11.3467 5.43683 11.7833C4.67614 11.7626 3.9317 11.5585 3.26683 11.1883V11.2467C3.27253 12.349 3.65882 13.4156 4.36036 14.266C5.0619 15.1163 6.03563 15.6982 7.11683 15.9133C6.70063 16.04 6.26852 16.1068 5.8335 16.1117C5.53237 16.1081 5.23199 16.0808 4.93516 16.03C5.24306 16.9783 5.83889 17.807 6.63975 18.4009C7.44061 18.9947 8.40667 19.3241 9.4035 19.3433C7.72023 20.6678 5.64203 21.3907 3.50016 21.3967C3.11019 21.3979 2.72052 21.3746 2.3335 21.3267C4.52033 22.7386 7.06878 23.4882 9.67183 23.485C11.4681 23.5037 13.2502 23.1642 14.9138 22.4864C16.5774 21.8087 18.0894 20.8062 19.3612 19.5376C20.6331 18.269 21.6395 16.7596 22.3215 15.0977C23.0035 13.4358 23.3475 11.6547 23.3335 9.85833C23.3335 9.66 23.3335 9.45 23.3335 9.24C24.249 8.55728 25.0386 7.72033 25.6668 6.76667Z" fill="url(#paint0_linear_2_5350)"/>
<defs>
<linearGradient id="paint0_linear_2_5350" x1="26.103" y1="23.4857" x2="10.7055" y2="-2.85278" gradientUnits="userSpaceOnUse">
<stop stop-color="#189BEE"/>
<stop offset="1" stop-color="#4062FF"/>
</linearGradient>
</defs>
</svg>
